<svg data-v-423bf9ae="" xmlns="http://www.w3.org/2000/svg" viewBox="0 0 65.90846114851627 60" class="font"><!----><!----><!----><g data-v-423bf9ae="" id="1caeb5ee-9021-4a0a-8a01-2100f0cdaf0c" fill="white" transform="matrix(8.321775436401367,0,0,8.321775436401367,-3.994448184967041,-55.00693893432617)"><path d="M2.66 7.76L2.55 6.99C2.49 6.82 2.38 6.73 2.21 6.73L1.48 6.73L0.48 6.73L0.48 7.32C0.48 7.46 0.53 7.56 0.67 7.59C0.76 7.62 1.04 7.67 1.48 7.76L1.48 12.81L0.67 12.96C0.53 12.99 0.48 13.09 0.48 13.23L0.48 13.82L3.74 13.82L3.74 13.23C3.74 13.09 3.67 12.99 3.53 12.96C3.02 12.85 2.74 12.80 2.72 12.80L2.72 8.60C3.30 7.94 3.95 7.60 4.65 7.60C5.64 7.60 6.13 8.19 6.13 9.31L6.13 13.82L8.40 13.82L8.40 13.22C8.40 13.08 8.32 12.98 8.18 12.95C8.09 12.92 7.83 12.87 7.38 12.78L7.38 9.30C7.38 8.48 7.17 7.83 6.78 7.35C6.36 6.85 5.77 6.61 5.01 6.61C4.14 6.61 3.36 6.99 2.66 7.74Z"></path></g><!----><!----></svg>